<svg width="220" height="190" viewBox="0 0 220 190" fill="none" xmlns="http://www.w3.org/2000/svg">
<ellipse cx="34" cy="70" rx="34" ry="43" fill="black"/>
<ellipse cx="186" cy="80" rx="34" ry="43" fill="black"/>
<path d="M64.8901 165.788C52.5701 171.095 40.2501 176.571 27.9301 182.218C24.7701 183.628 22.4601 184.058 20.9801 183.498C19.6501 182.638 18.9901 180.688 19.0001 177.678C19.4601 151.091 24.4868 124.811 34.0801 98.8381C39.5068 71.3848 35.1568 41.7348 21.0301 9.88811C19.3701 6.15811 18.8301 3.55811 19.4801 2.08811C20.3001 0.458105 22.3901 -0.211894 25.7201 0.0581058C40.1601 1.35811 54.6901 2.79477 69.3101 4.36811C72.1701 4.75811 74.5001 5.74811 76.2901 7.32811C78.2001 8.94811 79.9601 11.3481 81.5501 14.4781C89.4501 29.4381 97.1068 43.7381 104.52 57.3781C105.3 58.8481 105.92 59.9081 106.4 60.5581C107.02 61.2281 107.79 61.6081 108.73 61.6781C109.43 61.7248 110.13 61.7748 110.83 61.8281C111.77 61.8881 112.48 61.6281 112.96 61.0481C113.6 60.4881 114.31 59.5481 115.11 58.2281C122.237 47.0348 129.213 36.8281 136.04 27.6081C137.36 26.1081 138.82 25.0481 140.44 24.3581C142.23 23.5581 144.55 22.8881 147.38 22.3481C161.953 18.4748 176.587 14.4014 191.28 10.1281C194.72 9.14811 197.19 9.15811 198.65 10.1881C200.29 11.0481 201.12 13.0481 201.14 16.1381C200.747 43.1648 194.96 71.1348 183.78 100.048C177.013 128.515 180.26 155.658 193.52 181.478C195.1 184.508 195.58 186.728 194.94 188.148C194.29 189.408 192.44 190.038 189.43 189.998C176.897 189.858 164.24 189.608 151.46 189.248C148.27 189.018 145.83 188.018 144.14 186.298C142.6 184.358 141.63 181.618 141.22 178.148C138.367 148.795 137.44 119.961 138.44 91.6481C133.467 100.141 128.643 108.548 123.97 116.868C122.58 119.428 120.91 121.238 118.93 122.308C117.12 123.228 114.75 123.548 111.86 123.298C108.787 123.058 105.707 122.828 102.62 122.608C99.6701 122.428 97.2101 121.778 95.2501 120.638C93.4401 119.378 91.9101 117.448 90.6601 114.858C86.6935 106.445 82.8068 97.9281 79.0001 89.3081C76.8934 116.101 75.2601 139.638 74.1001 159.918C74.0301 161.238 73.2101 162.188 71.6701 162.968C70.3001 163.748 68.0401 164.678 64.8901 165.788Z" fill="white"/>
</svg>
